<?xml version="1.0" encoding="UTF-8" standalone="no"?>
<svg
   height="128px"
   viewBox="0 0 128 128"
   width="128px"
   version="1.1"
   id="svg24"
   sodipodi:docname="cow.svg"
   xml:space="preserve"
   inkscape:version="1.3.2 (091e20ef0f, 2023-11-25)"
   xmlns:inkscape="http://www.inkscape.org/namespaces/inkscape"
   xmlns:sodipodi="http://sodipodi.sourceforge.net/DTD/sodipodi-0.dtd"
   xmlns="http://www.w3.org/2000/svg"
   xmlns:svg="http://www.w3.org/2000/svg"><defs
     id="defs24"><linearGradient
       id="b"
       x1="48"
       x2="464"
       y1="44"
       y2="44"
       gradientUnits="userSpaceOnUse"><stop
         stop-color="#77767b"
         offset="0"
         id="stop1-3" /><stop
         stop-color="#c0bfbc"
         offset=".05"
         id="stop2-6" /><stop
         stop-color="#9a9996"
         offset=".1"
         id="stop3-7" /><stop
         stop-color="#9a9996"
         offset=".9"
         id="stop4-5" /><stop
         stop-color="#c0bfbc"
         offset=".95"
         id="stop5-3" /><stop
         stop-color="#77767b"
         offset="1"
         id="stop6-5" /></linearGradient><radialGradient
       id="a-6"
       cx="64"
       cy="194.19"
       r="44"
       gradientTransform="matrix(-4.7273,7.9359e-7,-3.0301e-7,-1.6364,238.55,49.766)"
       gradientUnits="userSpaceOnUse"><stop
         stop-color="#fff"
         offset="0"
         id="stop7" /><stop
         stop-color="#fff"
         stop-opacity=".094118"
         offset="1"
         id="stop8" /></radialGradient></defs><sodipodi:namedview
     id="namedview24"
     pagecolor="#ffffff"
     bordercolor="#000000"
     borderopacity="0.25"
     inkscape:showpageshadow="2"
     inkscape:pageopacity="0.0"
     inkscape:pagecheckerboard="0"
     inkscape:deskcolor="#d1d1d1"
     inkscape:zoom="3.2959316"
     inkscape:cx="67.507469"
     inkscape:cy="80.250452"
     inkscape:window-width="1536"
     inkscape:window-height="795"
     inkscape:window-x="0"
     inkscape:window-y="0"
     inkscape:window-maximized="1"
     inkscape:current-layer="svg24" /><linearGradient
     id="a"
     gradientTransform="matrix(0.25892873,0,0,0.36690242,-16.939998,288.6011)"
     gradientUnits="userSpaceOnUse"
     x1="88.595886"
     x2="536.595886"
     y1="-449.394012"
     y2="-449.394012"><stop
       offset="0"
       stop-color="#a51d2d"
       id="stop1" /><stop
       offset="0.0384615"
       stop-color="#f66151"
       id="stop2" /><stop
       offset="0.0768555"
       stop-color="#a51d2d"
       id="stop3" /><stop
       offset="0.923077"
       stop-color="#a51d2d"
       id="stop4" /><stop
       offset="0.961538"
       stop-color="#f66151"
       id="stop5" /><stop
       offset="1"
       stop-color="#a51d2d"
       id="stop6" /></linearGradient><path
     d="M 13.141416,10.0414 H 114.85858 c 5.10664,0 9.24702,4.140388 9.24702,9.247016 v 97.093654 c 0,5.10664 -4.14038,9.24702 -9.24702,9.24702 H 13.141416 c -5.106629,0 -9.247016,-4.14038 -9.247016,-9.24702 V 19.288416 c 0,-5.106628 4.140387,-9.247016 9.247016,-9.247016 z m 0,0"
     fill="url(#a)"
     id="path6"
     style="fill:#c01c28;stroke-width:1.15587" /><path
     d="M 13.141416,3.3452859 H 114.85858 c 5.10664,0 9.24702,4.1403868 9.24702,9.2470161 v 97.093648 c 0,5.10664 -4.14038,9.24702 -9.24702,9.24702 H 13.141416 c -5.106629,0 -9.247016,-4.14038 -9.247016,-9.24702 V 12.592302 c 0,-5.1066293 4.140387,-9.2470161 9.247016,-9.2470161 z m 0,0"
     fill="#a51d2d"
     id="path7"
     style="stroke-width:1.15587" /><path
     d="m 15.150445,15.436424 h 97.699115 c 1.91893,0 3.47666,1.557725 3.47666,3.476662 v 96.543224 c 0,1.91894 -1.55773,3.47666 -3.47666,3.47666 H 15.150445 c -1.918936,0 -3.47666,-1.55772 -3.47666,-3.47666 V 18.913086 c 0,-1.918937 1.557724,-3.476662 3.47666,-3.476662 z"
     fill="#ffffff"
     id="path8"
     style="stroke-width:1.15587"
     sodipodi:nodetypes="sssssssss" /><path
     d="m 13.141416,3.3452859 c -5.12469,0 -9.247016,4.1223261 -9.247016,9.2470161 v 97.093648 c 0,5.1247 4.122326,9.24702 9.247016,9.24702 H 114.85858 c 5.1247,0 9.24702,-4.12232 9.24702,-9.24702 V 12.592302 c 0,-5.12469 -4.12232,-9.2470161 -9.24702,-9.2470161 z m 2,7.7793851 h 97.717164 c 2.31176,0 3.46764,1.155877 3.46764,3.467631 v 93.093648 c 0,2.31176 -1.15588,3.46764 -3.46764,3.46764 H 15.141416 c -2.311754,0 -3.467631,-1.15588 -3.467631,-3.46764 V 14.592302 c 0,-2.311754 1.155877,-3.467631 3.467631,-3.467631 z"
     fill="#ed333b"
     id="path23"
     style="stroke-width:1.15587"
     sodipodi:nodetypes="ssssssssssssssssss" /><g
     id="text1"
     style="font-weight:900;font-family:'Source Code Pro';-inkscape-font-specification:'Source Code Pro Heavy';fill:#3b3b3b;stroke-width:1.132;stroke-linecap:round;stroke-linejoin:round;fill-opacity:1"
     aria-label=" _________________________________________&#10;/ Loading shower thoughts. If I can't     \&#10;| think of anything witty, the burden is  |&#10;\ on you...                               /&#10; -----------------------------------------&#10;        \   ^__^&#10;         \  (..)\_______&#10;            (__)\       )\/\&#10;                ||----w |&#10;                ||     ||&#10;"
     transform="matrix(1.8647325,0,0,1.8647325,462.82875,-168.22974)"><path
       id="path18"
       d="m -225.49609,103.97656 -1.8711,4.80078 h 1.67969 l 0.45508,-1.32031 0.5293,-1.63281 h 0.0469 l 0.52734,1.63281 0.45703,1.32031 h 1.67969 l -1.87109,-4.80078 z m 21.59961,0 -1.8711,4.80078 h 1.67969 l 0.45508,-1.32031 0.52929,-1.63281 h 0.0469 l 0.5293,1.63281 0.45507,1.32031 h 1.67969 l -1.87109,-4.80078 z m -16.4629,8.61524 v 1.51172 h 5.75977 v -1.51172 z m 7.19922,0 v 1.51172 h 5.75977 v -1.51172 z m -10.5957,5.59179 c -1.524,1.416 -2.48437,3.2641 -2.48437,5.4961 0,2.232 0.96037,4.08009 2.48437,5.49609 l 1.14063,-0.88672 c -1.356,-1.404 -1.91993,-2.76137 -1.91993,-4.60937 0,-1.848 0.56393,-3.20343 1.91993,-4.60742 z m 19.75195,0 -1.14062,0.88868 c 1.356,1.40399 1.91992,2.75942 1.91992,4.60742 0,1.848 -0.56392,3.20537 -1.91992,4.60937 l 1.14062,0.88672 c 1.524,-1.416 2.48438,-3.26409 2.48438,-5.49609 0,-2.232 -0.96038,-4.0801 -2.48438,-5.4961 z m -13.47656,5.85743 c -0.936,0 -1.56055,0.70659 -1.56055,1.55859 0,0.864 0.62455,1.56055 1.56055,1.56055 0.936,0 1.56055,-0.69655 1.56055,-1.56055 0,-0.852 -0.62455,-1.55859 -1.56055,-1.55859 z m 7.20117,0 c -0.936,0 -1.56054,0.70659 -1.56054,1.55859 0,0.864 0.62454,1.56055 1.56054,1.56055 0.936,0 1.5586,-0.69655 1.5586,-1.56055 0,-0.852 -0.6226,-1.55859 -1.5586,-1.55859 z m -13.47656,9.14257 c -1.524,1.416 -2.48437,3.2641 -2.48437,5.4961 0,2.232 0.96037,4.08009 2.48437,5.49609 l 1.14063,-0.88672 c -1.356,-1.404 -1.91993,-2.76137 -1.91993,-4.60937 0,-1.848 0.56393,-3.20343 1.91993,-4.60742 z m 19.75195,0 -1.14062,0.88868 c 1.356,1.40399 1.91992,2.75942 1.91992,4.60742 0,1.848 -0.56392,3.20537 -1.91992,4.60937 l 1.14062,0.88672 c 1.524,-1.416 2.48438,-3.26409 2.48438,-5.49609 0,-2.232 -0.96038,-4.0801 -2.48438,-5.4961 z m -16.35547,9.40821 v 1.51172 h 5.75977 v -1.51172 z m 7.19922,0 v 1.51172 h 5.75977 v -1.51172 z"
       sodipodi:nodetypes="cccccccccccccccccccccccccccccccccsccsccccsccscsssssssssscsccsccccsccsccccccccccc"
       style="fill:#3b3b3b;fill-opacity:1" /></g></svg>
