<?xml version="1.0" encoding="UTF-8" standalone="no"?>
<svg
   width="16"
   height="16"
   viewBox="0 0 16 16"
   fill="none"
   version="1.1"
   id="svg122"
   sodipodi:docname="hand.svg"
   inkscape:version="1.3.2 (091e20e, 2023-11-25, custom)"
   xmlns:inkscape="http://www.inkscape.org/namespaces/inkscape"
   xmlns:sodipodi="http://sodipodi.sourceforge.net/DTD/sodipodi-0.dtd"
   xmlns="http://www.w3.org/2000/svg"
   xmlns:svg="http://www.w3.org/2000/svg">
  <sodipodi:namedview
     id="namedview122"
     pagecolor="#ffffff"
     bordercolor="#000000"
     borderopacity="0.25"
     inkscape:showpageshadow="2"
     inkscape:pageopacity="0.0"
     inkscape:pagecheckerboard="0"
     inkscape:deskcolor="#d1d1d1"
     inkscape:zoom="12.015625"
     inkscape:cx="21.513654"
     inkscape:cy="26.174252"
     inkscape:window-width="1920"
     inkscape:window-height="974"
     inkscape:window-x="-11"
     inkscape:window-y="-11"
     inkscape:window-maximized="1"
     inkscape:current-layer="svg122" />
  <g
     id="g122"
     transform="matrix(0.49740895,0,0,0.49740895,0.04145672,0.01846294)">
    <path
       d="m 21.160744,5.9877024 c 1.390589,3.0663002 3.097106,6.8292446 4.378193,8.3239606 0.250091,-0.580764 0.223344,-1.554496 0.509212,-3.930817 0.258206,-2.145868 2.027932,-2.3495185 2.787234,-2.1976464 1.679542,0.3501959 2.191154,2.0524834 2.135146,2.6801104 -0.08938,1.000479 -0.09361,0.966418 -0.276952,3.385716 -0.268036,3.537736 1.098892,6.20884 1.223937,9.237365 C 31.917514,29.194934 26.914666,32 23.412706,32 20.611185,32 17.808405,30.207415 16.757291,29.311065 L 11.504352,24.513729 C 10.861179,24.013434 9.2713758,22.36281 8.5740352,21.413767 6.6729779,18.826674 9.4228134,17.04529 10.968279,17.491979 10.846777,17.399057 10.11365,16.208491 9.762287,15.62487 c -0.9433729,-1.893971 0,-3.155514 0.696781,-3.50196 1.581242,-0.786163 2.742657,0.0983 3.108877,0.58065 C 13.428041,12.465356 12.989124,11.50294 12.2816,9.7376728 11.574075,7.9723596 12.713315,6.8818806 13.371462,6.5572881 14.800798,5.8962043 16.158696,6.7359637 16.498171,7.4863852 16.664479,7.8538521 17.561172,9.817798 17.951624,10.683973 17.657299,9.9657039 17.124427,8.5388934 16.935945,7.8794555 16.560693,6.3250166 17.462987,5.2589752 18.034722,4.9850067 18.829686,4.6040866 20.488082,4.5043131 21.1436,5.9498344 Z"
       fill="url(#paint0_radial_20020_1063)"
       id="path1"
       style="fill:url(#paint0_radial_20020_1063);stroke-width:1.14301" />
    <path
       d="m 30.970529,10.863197 c -0.08938,1.000592 -0.09373,0.966531 -0.276952,3.385829 -0.09476,1.249998 0.584994,5.853707 0.584994,5.853707 -1.651995,0.539387 -5.230422,-0.175795 -5.739634,-5.791184 0.250091,-0.58065 0.223344,-1.554382 0.509212,-3.930703 0.258092,-2.1458909 2.027932,-2.3495413 2.787234,-2.1976693 1.679542,0.3501959 2.191154,2.0525063 2.135146,2.6800203 z"
       fill="url(#paint2_radial_20020_1063)"
       id="path3"
       style="fill:url(#paint2_radial_20020_1063);stroke-width:1.14301" />
    <path
       fill-rule="evenodd"
       clip-rule="evenodd"
       d="m 2.6160632,17.215485 c 0.3402289,0 0.6160491,0.275809 0.6160491,0.616084 0,1.029396 0.4162849,2.407182 1.3130119,3.519447 0.8813994,1.09329 2.2173401,1.921403 4.0921539,1.921403 0.3402293,0 0.6160373,0.275809 0.6160373,0.616083 0,0.34016 -0.275808,0.615969 -0.6160373,0.615969 -2.2882297,0 -3.9628907,-1.030082 -5.0513351,-2.380094 -1.0731281,-1.331037 -1.5859175,-2.981774 -1.5859175,-4.292808 0,-0.340275 0.2758088,-0.616084 0.6160377,-0.616084 z"
       fill="url(#paint31_radial_20020_1063)"
       id="path32"
       style="fill:url(#paint31_radial_20020_1063);stroke-width:1.14301" />
    <path
       fill-rule="evenodd"
       clip-rule="evenodd"
       d="m 2.6160632,17.215485 c 0.3402289,0 0.6160491,0.275809 0.6160491,0.616084 0,1.029396 0.4162849,2.407182 1.3130119,3.519447 0.8813994,1.09329 2.2173401,1.921403 4.0921539,1.921403 0.3402293,0 0.6160373,0.275809 0.6160373,0.616083 0,0.34016 -0.275808,0.615969 -0.6160373,0.615969 -2.2882297,0 -3.9628907,-1.030082 -5.0513351,-2.380094 -1.0731281,-1.331037 -1.5859175,-2.981774 -1.5859175,-4.292808 0,-0.340275 0.2758088,-0.616084 0.6160377,-0.616084 z"
       fill="url(#paint32_radial_20020_1063)"
       id="path33"
       style="fill:url(#paint32_radial_20020_1063);stroke-width:1.14301" />
    <path
       fill-rule="evenodd"
       clip-rule="evenodd"
       d="m 2.6160632,17.215485 c 0.3402289,0 0.6160491,0.275809 0.6160491,0.616084 0,1.029396 0.4162849,2.407182 1.3130119,3.519447 0.8813994,1.09329 2.2173401,1.921403 4.0921539,1.921403 0.3402293,0 0.6160373,0.275809 0.6160373,0.616083 0,0.34016 -0.275808,0.615969 -0.6160373,0.615969 -2.2882297,0 -3.9628907,-1.030082 -5.0513351,-2.380094 -1.0731281,-1.331037 -1.5859175,-2.981774 -1.5859175,-4.292808 0,-0.340275 0.2758088,-0.616084 0.6160377,-0.616084 z"
       fill="url(#paint33_radial_20020_1063)"
       id="path34"
       style="fill:url(#paint33_radial_20020_1063);stroke-width:1.14301" />
    <path
       fill-rule="evenodd"
       clip-rule="evenodd"
       d="m 0.69853504,19.413154 c 0.34022886,0 0.61603766,0.275809 0.61603766,0.616083 0,2.18361 1.6357529,5.101376 5.0707206,5.101376 0.3402289,0 0.6160377,0.275809 0.6160377,0.616083 0,0.340275 -0.2758088,0.616084 -0.6160377,0.616084 -4.3193503,0 -6.3028073,-3.693071 -6.3028073,-6.333543 0,-0.340274 0.27582014,-0.616083 0.61604904,-0.616083 z"
       fill="url(#paint34_radial_20020_1063)"
       id="path35"
       style="fill:url(#paint34_radial_20020_1063);stroke-width:1.14301" />
    <path
       fill-rule="evenodd"
       clip-rule="evenodd"
       d="m 0.69853504,19.413154 c 0.34022886,0 0.61603766,0.275809 0.61603766,0.616083 0,2.18361 1.6357529,5.101376 5.0707206,5.101376 0.3402289,0 0.6160377,0.275809 0.6160377,0.616083 0,0.340275 -0.2758088,0.616084 -0.6160377,0.616084 -4.3193503,0 -6.3028073,-3.693071 -6.3028073,-6.333543 0,-0.340274 0.27582014,-0.616083 0.61604904,-0.616083 z"
       fill="url(#paint35_radial_20020_1063)"
       id="path36"
       style="fill:url(#paint35_radial_20020_1063);stroke-width:1.14301" />
    <path
       fill-rule="evenodd"
       clip-rule="evenodd"
       d="M 23.773555,9.1589768 C 23.433281,9.1612057 23.155643,8.8872034 23.153471,8.5469745 23.146727,7.5175437 22.721412,6.1424777 21.817519,5.0360993 20.928942,3.9486264 19.587618,3.1292699 17.712849,3.1415229 c -0.34016,0.00222 -0.617798,-0.2717854 -0.620084,-0.6120028 -0.0021,-0.3402289 0.271809,-0.6178322 0.612083,-0.6200611 2.288081,-0.014951 3.969452,1.0041474 5.066743,2.347072 1.081747,1.3240191 1.60536,2.9712821 1.613933,4.2823966 0.0023,0.3402174 -0.271809,0.617832 -0.611969,0.6200492 z"
       fill="url(#paint36_radial_20020_1063)"
       id="path37"
       style="fill:url(#paint36_radial_20020_1063);stroke-width:1.14301" />
    <path
       fill-rule="evenodd"
       clip-rule="evenodd"
       d="M 23.773555,9.1589768 C 23.433281,9.1612057 23.155643,8.8872034 23.153471,8.5469745 23.146727,7.5175437 22.721412,6.1424777 21.817519,5.0360993 20.928942,3.9486264 19.587618,3.1292699 17.712849,3.1415229 c -0.34016,0.00222 -0.617798,-0.2717854 -0.620084,-0.6120028 -0.0021,-0.3402289 0.271809,-0.6178322 0.612083,-0.6200611 2.288081,-0.014951 3.969452,1.0041474 5.066743,2.347072 1.081747,1.3240191 1.60536,2.9712821 1.613933,4.2823966 0.0023,0.3402174 -0.271809,0.617832 -0.611969,0.6200492 z"
       fill="url(#paint37_radial_20020_1063)"
       id="path38"
       style="fill:url(#paint37_radial_20020_1063);stroke-width:1.14301" />
    <path
       fill-rule="evenodd"
       clip-rule="evenodd"
       d="m 25.675412,6.9491354 c -0.340274,0.00223 -0.617911,-0.271774 -0.620083,-0.6120029 -0.01429,-2.1835983 -1.669026,-5.0906204 -5.104005,-5.0681716 -0.340161,0.00222 -0.617798,-0.27178539 -0.61997,-0.61200283 -0.0023,-0.3402289 0.271694,-0.61783217 0.611969,-0.62006108 4.319213,-0.02823218 6.326799,3.65177421 6.344059,6.29218871 0.0021,0.3402175 -0.271809,0.6178322 -0.61197,0.6200497 z"
       fill="url(#paint38_radial_20020_1063)"
       id="path39"
       style="fill:url(#paint38_radial_20020_1063);stroke-width:1.14301" />
    <path
       fill-rule="evenodd"
       clip-rule="evenodd"
       d="m 25.675412,6.9491354 c -0.340274,0.00223 -0.617911,-0.271774 -0.620083,-0.6120029 -0.01429,-2.1835983 -1.669026,-5.0906204 -5.104005,-5.0681716 -0.340161,0.00222 -0.617798,-0.27178539 -0.61997,-0.61200283 -0.0023,-0.3402289 0.271694,-0.61783217 0.611969,-0.62006108 4.319213,-0.02823218 6.326799,3.65177421 6.344059,6.29218871 0.0021,0.3402175 -0.271809,0.6178322 -0.61197,0.6200497 z"
       fill="url(#paint39_radial_20020_1063)"
       id="path40"
       style="fill:url(#paint39_radial_20020_1063);stroke-width:1.14301" />
  </g>
  <defs
     id="defs122">
    <filter
       id="filter0_f_20020_1063"
       x="11.923"
       y="11.4286"
       width="13.6085"
       height="15.0648"
       filterUnits="userSpaceOnUse"
       color-interpolation-filters="sRGB">
      <feFlood
         flood-opacity="0"
         result="BackgroundImageFix"
         id="feFlood41" />
      <feBlend
         mode="normal"
         in="SourceGraphic"
         in2="BackgroundImageFix"
         result="shape"
         id="feBlend41" />
      <feGaussianBlur
         stdDeviation="1"
         result="effect1_foregroundBlur_20020_1063"
         id="feGaussianBlur41" />
    </filter>
    <radialGradient
       id="paint0_radial_20020_1063"
       cx="0"
       cy="0"
       r="1"
       gradientUnits="userSpaceOnUse"
       gradientTransform="matrix(11.994736,20.859989,-13.627563,7.8360059,19.922748,13.711811)">
      <stop
         offset="0.00323036"
         stop-color="#FFC133"
         id="stop41" />
      <stop
         offset="0.697824"
         stop-color="#FFC53F"
         id="stop42" />
      <stop
         offset="0.797459"
         stop-color="#FFAD3E"
         id="stop43" />
      <stop
         offset="0.945275"
         stop-color="#EC7D58"
         id="stop44" />
    </radialGradient>
    <radialGradient
       id="paint1_radial_20020_1063"
       cx="0"
       cy="0"
       r="1"
       gradientUnits="userSpaceOnUse"
       gradientTransform="matrix(-0.65625011,-12.472848,4.7783008,-0.25140693,39.290459,20.540724)">
      <stop
         offset="0.00323036"
         stop-color="#FFE849"
         id="stop45" />
      <stop
         offset="1"
         stop-color="#FFE647"
         stop-opacity="0"
         id="stop46" />
    </radialGradient>
    <radialGradient
       id="paint2_radial_20020_1063"
       cx="0"
       cy="0"
       r="1"
       gradientUnits="userSpaceOnUse"
       gradientTransform="matrix(-1.2858941,7.53673,-2.8873016,-0.49262272,30.202998,8.7825838)">
      <stop
         offset="0.00323036"
         stop-color="#FFE849"
         id="stop47" />
      <stop
         offset="1"
         stop-color="#FFE647"
         stop-opacity="0"
         id="stop48" />
    </radialGradient>
    <radialGradient
       id="paint3_radial_20020_1063"
       cx="0"
       cy="0"
       r="1"
       gradientUnits="userSpaceOnUse"
       gradientTransform="matrix(2.70547,0,0,10.9717,24.1808,13.5509)">
      <stop
         stop-color="#EE9F2C"
         id="stop49" />
      <stop
         offset="1"
         stop-color="#EE9F2C"
         stop-opacity="0"
         id="stop50" />
    </radialGradient>
    <radialGradient
       id="paint4_radial_20020_1063"
       cx="0"
       cy="0"
       r="1"
       gradientUnits="userSpaceOnUse"
       gradientTransform="matrix(-0.32443707,-4.5421378,3.1548722,-0.22534708,25.368,17.8042)">
      <stop
         stop-color="#FFC93D"
         id="stop51" />
      <stop
         offset="1"
         stop-color="#FFC33A"
         stop-opacity="0"
         id="stop52" />
    </radialGradient>
    <radialGradient
       id="paint5_radial_20020_1063"
       cx="0"
       cy="0"
       r="1"
       gradientUnits="userSpaceOnUse"
       gradientTransform="matrix(-4.1874964,2.3188747,-4.6581638,-8.4118577,22.8238,10.8913)">
      <stop
         offset="0.563302"
         stop-color="#F09D2E"
         stop-opacity="0"
         id="stop53" />
      <stop
         offset="1"
         stop-color="#F09D2E"
         id="stop54" />
    </radialGradient>
    <linearGradient
       id="paint6_linear_20020_1063"
       x1="20.3787"
       y1="15.7952"
       x2="20.3787"
       y2="13.2101"
       gradientUnits="userSpaceOnUse">
      <stop
         stop-color="#FFC337"
         id="stop55" />
      <stop
         offset="1"
         stop-color="#FFC337"
         stop-opacity="0"
         id="stop56" />
    </linearGradient>
    <radialGradient
       id="paint7_radial_20020_1063"
       cx="0"
       cy="0"
       r="1"
       gradientUnits="userSpaceOnUse"
       gradientTransform="matrix(3.1250004,-0.74999818,1.6585239,6.9105339,21.8238,7.08513)">
      <stop
         stop-color="#FFEC4C"
         id="stop57" />
      <stop
         offset="1"
         stop-color="#FFEC4C"
         stop-opacity="0"
         id="stop58" />
    </radialGradient>
    <radialGradient
       id="paint8_radial_20020_1063"
       cx="0"
       cy="0"
       r="1"
       gradientUnits="userSpaceOnUse"
       gradientTransform="matrix(2.6221114,1.7228245,-1.3357196,2.0329439,16.5767,5.9873)">
      <stop
         stop-color="#D99F2B"
         id="stop59" />
      <stop
         offset="1"
         stop-color="#D99F2B"
         stop-opacity="0"
         id="stop60" />
    </radialGradient>
    <linearGradient
       id="paint9_linear_20020_1063"
       x1="17.073799"
       y1="12.3039"
       x2="18.636299"
       y2="11.5539"
       gradientUnits="userSpaceOnUse">
      <stop
         stop-color="#A85300"
         id="stop61" />
      <stop
         offset="0.824742"
         stop-color="#A85300"
         stop-opacity="0"
         id="stop62" />
    </linearGradient>
    <radialGradient
       id="paint10_radial_20020_1063"
       cx="0"
       cy="0"
       r="1"
       gradientUnits="userSpaceOnUse"
       gradientTransform="matrix(-3.9612239,2.3662387,-4.9378729,-8.2662922,18.3129,12.3705)">
      <stop
         offset="0.563302"
         stop-color="#F09D2E"
         stop-opacity="0"
         id="stop63" />
      <stop
         offset="1"
         stop-color="#F09D2E"
         id="stop64" />
    </radialGradient>
    <linearGradient
       id="paint11_linear_20020_1063"
       x1="15.9999"
       y1="17.374599"
       x2="15.9999"
       y2="14.7367"
       gradientUnits="userSpaceOnUse">
      <stop
         stop-color="#FFC337"
         id="stop65" />
      <stop
         offset="1"
         stop-color="#FFC337"
         stop-opacity="0"
         id="stop66" />
    </linearGradient>
    <radialGradient
       id="paint12_radial_20020_1063"
       cx="0"
       cy="0"
       r="1"
       gradientUnits="userSpaceOnUse"
       gradientTransform="matrix(2.5418337,-1.7075842,5.198737,7.7386081,17.7812,9.42885)">
      <stop
         stop-color="#FFEC4C"
         id="stop67" />
      <stop
         offset="1"
         stop-color="#FFEC4C"
         stop-opacity="0"
         id="stop68" />
    </radialGradient>
    <radialGradient
       id="paint13_radial_20020_1063"
       cx="0"
       cy="0"
       r="1"
       gradientUnits="userSpaceOnUse"
       gradientTransform="matrix(3.5000016,-1.6250031,7.4199478,15.981403,15.4488,13.2101)">
      <stop
         offset="0.597587"
         stop-color="#F09D2E"
         stop-opacity="0"
         id="stop69" />
      <stop
         offset="1"
         stop-color="#F09D2E"
         id="stop70" />
    </radialGradient>
    <radialGradient
       id="paint14_radial_20020_1063"
       cx="0"
       cy="0"
       r="1"
       gradientUnits="userSpaceOnUse"
       gradientTransform="matrix(2.6874978,1.7187662,-1.3698849,2.1419798,11.9488,7.36633)">
      <stop
         stop-color="#D99F2B"
         id="stop71" />
      <stop
         offset="1"
         stop-color="#D99F2B"
         stop-opacity="0"
         id="stop72" />
    </radialGradient>
    <linearGradient
       id="paint15_linear_20020_1063"
       x1="13.355"
       y1="13.8351"
       x2="14.3947"
       y2="13.1082"
       gradientUnits="userSpaceOnUse">
      <stop
         stop-color="#A85300"
         id="stop73" />
      <stop
         offset="0.824742"
         stop-color="#A85300"
         stop-opacity="0"
         id="stop74" />
    </linearGradient>
    <radialGradient
       id="paint16_radial_20020_1063"
       cx="0"
       cy="0"
       r="1"
       gradientUnits="userSpaceOnUse"
       gradientTransform="matrix(-2.8115688,2.5898112,-5.0713571,-5.5056019,15.6353,16.3702)">
      <stop
         offset="0.563302"
         stop-color="#F09D2E"
         stop-opacity="0"
         id="stop75" />
      <stop
         offset="1"
         stop-color="#F09D2E"
         id="stop76" />
    </radialGradient>
    <linearGradient
       id="paint17_linear_20020_1063"
       x1="13.4417"
       y1="20.569401"
       x2="13.4417"
       y2="18.355801"
       gradientUnits="userSpaceOnUse">
      <stop
         stop-color="#FFC337"
         id="stop77" />
      <stop
         offset="1"
         stop-color="#FFC337"
         stop-opacity="0"
         id="stop78" />
    </linearGradient>
    <radialGradient
       id="paint18_radial_20020_1063"
       cx="0"
       cy="0"
       r="1"
       gradientUnits="userSpaceOnUse"
       gradientTransform="matrix(2.8445693,-0.61998757,1.3133021,6.0255702,14.6972,13.0888)">
      <stop
         stop-color="#FFEC4C"
         id="stop79" />
      <stop
         offset="1"
         stop-color="#FFEC4C"
         stop-opacity="0"
         id="stop80" />
    </radialGradient>
    <radialGradient
       id="paint19_radial_20020_1063"
       cx="0"
       cy="0"
       r="1"
       gradientUnits="userSpaceOnUse"
       gradientTransform="matrix(3.0923079,-2.6147296,13.367399,15.808944,12.9189,17.0748)">
      <stop
         offset="0.597587"
         stop-color="#F09D2E"
         stop-opacity="0"
         id="stop81" />
      <stop
         offset="1"
         stop-color="#F09D2E"
         id="stop82" />
    </radialGradient>
    <radialGradient
       id="paint20_radial_20020_1063"
       cx="0"
       cy="0"
       r="1"
       gradientUnits="userSpaceOnUse"
       gradientTransform="matrix(2.5488816,1.4422875,-1.085504,1.9183562,9.59946,12.171)">
      <stop
         stop-color="#D99F2B"
         id="stop83" />
      <stop
         offset="1"
         stop-color="#D99F2B"
         stop-opacity="0"
         id="stop84" />
    </radialGradient>
    <radialGradient
       id="paint21_radial_20020_1063"
       cx="0"
       cy="0"
       r="1"
       gradientUnits="userSpaceOnUse"
       gradientTransform="matrix(1.1562508,-1.1875009,5.3616908,5.2205934,11.1362,17.9288)">
      <stop
         stop-color="#A85300"
         id="stop85" />
      <stop
         offset="0.824742"
         stop-color="#A85300"
         stop-opacity="0"
         id="stop86" />
    </radialGradient>
    <radialGradient
       id="paint22_radial_20020_1063"
       cx="0"
       cy="0"
       r="1"
       gradientUnits="userSpaceOnUse"
       gradientTransform="matrix(-3.0157914,2.242257,-4.2189351,-5.6743843,14.7851,20.7178)">
      <stop
         offset="0.563302"
         stop-color="#F09D2E"
         stop-opacity="0"
         id="stop87" />
      <stop
         offset="1"
         stop-color="#F09D2E"
         id="stop88" />
    </radialGradient>
    <radialGradient
       id="paint23_radial_20020_1063"
       cx="0"
       cy="0"
       r="1"
       gradientUnits="userSpaceOnUse"
       gradientTransform="matrix(3.0511933,-0.53678056,0.93252076,5.3006783,13.7789,17.8768)">
      <stop
         stop-color="#FFEC4C"
         id="stop89" />
      <stop
         offset="1"
         stop-color="#FFEC4C"
         stop-opacity="0"
         id="stop90" />
    </radialGradient>
    <radialGradient
       id="paint24_radial_20020_1063"
       cx="0"
       cy="0"
       r="1"
       gradientUnits="userSpaceOnUse"
       gradientTransform="matrix(3.3169291,-2.263818,10.929529,16.013863,11.8714,21.3278)">
      <stop
         offset="0.597587"
         stop-color="#F09D2E"
         stop-opacity="0"
         id="stop91" />
      <stop
         offset="1"
         stop-color="#F09D2E"
         id="stop92" />
    </radialGradient>
    <radialGradient
       id="paint25_radial_20020_1063"
       cx="0"
       cy="0"
       r="1"
       gradientUnits="userSpaceOnUse"
       gradientTransform="matrix(2.7340298,1.2487248,-0.82862782,1.8142453,8.31082,17.0822)">
      <stop
         stop-color="#D99F2B"
         id="stop93" />
      <stop
         offset="1"
         stop-color="#D99F2B"
         stop-opacity="0"
         id="stop94" />
    </radialGradient>
    <linearGradient
       id="paint26_linear_20020_1063"
       x1="14.9487"
       y1="27.5851"
       x2="12.4321"
       y2="22.436899"
       gradientUnits="userSpaceOnUse">
      <stop
         stop-color="#FFC337"
         id="stop95" />
      <stop
         offset="1"
         stop-color="#FFC337"
         stop-opacity="0"
         id="stop96" />
    </linearGradient>
    <radialGradient
       id="paint27_radial_20020_1063"
       cx="0"
       cy="0"
       r="1"
       gradientUnits="userSpaceOnUse"
       gradientTransform="matrix(-10.937552,13.500006,-21.832392,-17.688357,36.806957,13.770975)">
      <stop
         offset="0.872168"
         stop-color="#F6814F"
         stop-opacity="0"
         id="stop97" />
      <stop
         offset="1"
         stop-color="#F7814F"
         id="stop98" />
    </radialGradient>
    <radialGradient
       id="paint28_radial_20020_1063"
       cx="0"
       cy="0"
       r="1"
       gradientUnits="userSpaceOnUse"
       gradientTransform="matrix(4.3750053,17.937468,-19.681347,4.8003428,33.265182,14.749112)">
      <stop
         offset="0.853453"
         stop-color="#F6814F"
         stop-opacity="0"
         id="stop99" />
      <stop
         offset="1"
         stop-color="#F7814F"
         id="stop100" />
    </radialGradient>
    <radialGradient
       id="paint29_radial_20020_1063"
       cx="0"
       cy="0"
       r="1"
       gradientUnits="userSpaceOnUse"
       gradientTransform="matrix(1.375003,2.8750017,-2.5630167,1.2257925,37.286233,10.769054)">
      <stop
         stop-color="#D99F2B"
         id="stop101" />
      <stop
         offset="1"
         stop-color="#D99F2B"
         stop-opacity="0"
         id="stop102" />
    </radialGradient>
    <radialGradient
       id="paint30_radial_20020_1063"
       cx="0"
       cy="0"
       r="1"
       gradientUnits="userSpaceOnUse"
       gradientTransform="matrix(-1.0430189,0.62043247,-1.9198541,-3.2274973,24.4644,14.1163)">
      <stop
         offset="0.200941"
         stop-color="#B4813D"
         id="stop103" />
      <stop
         offset="1"
         stop-color="#B4813D"
         stop-opacity="0"
         id="stop104" />
    </radialGradient>
    <radialGradient
       id="paint31_radial_20020_1063"
       cx="0"
       cy="0"
       r="1"
       gradientUnits="userSpaceOnUse"
       gradientTransform="matrix(2.8439262,5.3646742,-7.956046,4.2176668,3.4925362,17.545702)">
      <stop
         stop-color="#419FFD"
         id="stop105" />
      <stop
         offset="1"
         stop-color="#4B6DCB"
         id="stop106" />
    </radialGradient>
    <radialGradient
       id="paint32_radial_20020_1063"
       cx="0"
       cy="0"
       r="1"
       gradientUnits="userSpaceOnUse"
       gradientTransform="matrix(0.85725918,0.03571907,-0.07517102,1.8041076,1.7754696,17.998105)">
      <stop
         stop-color="#5486C7"
         id="stop107" />
      <stop
         offset="1"
         stop-color="#5486C7"
         stop-opacity="0"
         id="stop108" />
    </radialGradient>
    <radialGradient
       id="paint33_radial_20020_1063"
       cx="0"
       cy="0"
       r="1"
       gradientUnits="userSpaceOnUse"
       gradientTransform="matrix(-0.32146643,0.80368272,-2.3639313,-0.94555292,8.2049113,22.891568)">
      <stop
         stop-color="#5486C7"
         id="stop109" />
      <stop
         offset="1"
         stop-color="#5486C7"
         stop-opacity="0"
         id="stop110" />
    </radialGradient>
    <radialGradient
       id="paint34_radial_20020_1063"
       cx="0"
       cy="0"
       r="1"
       gradientUnits="userSpaceOnUse"
       gradientTransform="matrix(-0.39454483,4.7863591,-8.0477974,-0.66338876,3.9364592,20.712758)">
      <stop
         stop-color="#419FFD"
         id="stop111" />
      <stop
         offset="1"
         stop-color="#4B6DCB"
         id="stop112" />
    </radialGradient>
    <radialGradient
       id="paint35_radial_20020_1063"
       cx="0"
       cy="0"
       r="1"
       gradientUnits="userSpaceOnUse"
       gradientTransform="matrix(0.81772995,0.03405558,-0.07163573,1.7200905,-0.13170292,20.159313)">
      <stop
         stop-color="#5486C7"
         id="stop113" />
      <stop
         offset="1"
         stop-color="#5486C7"
         stop-opacity="0"
         id="stop114" />
    </radialGradient>
    <radialGradient
       id="paint36_radial_20020_1063"
       cx="0"
       cy="0"
       r="1"
       gradientUnits="userSpaceOnUse"
       gradientTransform="matrix(2.5356267,4.4267015,-6.5649958,3.7604477,19.054517,0.57979342)">
      <stop
         stop-color="#419FFD"
         id="stop115" />
      <stop
         offset="1"
         stop-color="#4B6DCB"
         id="stop116" />
    </radialGradient>
    <radialGradient
       id="paint37_radial_20020_1063"
       cx="0"
       cy="0"
       r="1"
       gradientUnits="userSpaceOnUse"
       gradientTransform="matrix(0.69452978,0.23727348,-0.38190302,1.117879,16.954004,2.4271178)">
      <stop
         stop-color="#4D8AC1"
         id="stop117" />
      <stop
         offset="1"
         stop-color="#4D8AC1"
         stop-opacity="0"
         id="stop118" />
    </radialGradient>
    <radialGradient
       id="paint38_radial_20020_1063"
       cx="0"
       cy="0"
       r="1"
       gradientUnits="userSpaceOnUse"
       gradientTransform="matrix(3.1024583,5.5262557,-8.1978076,4.6022768,21.202351,-1.230662)">
      <stop
         stop-color="#419FFD"
         id="stop119" />
      <stop
         offset="1"
         stop-color="#4B6DCB"
         id="stop120" />
    </radialGradient>
    <radialGradient
       id="paint39_radial_20020_1063"
       cx="0"
       cy="0"
       r="1"
       gradientUnits="userSpaceOnUse"
       gradientTransform="matrix(0.66250452,0.2262203,-0.363975,1.0659303,19.198765,0.53063249)">
      <stop
         stop-color="#4D8AC1"
         id="stop121" />
      <stop
         offset="1"
         stop-color="#4D8AC1"
         stop-opacity="0"
         id="stop122" />
    </radialGradient>
  </defs>
</svg>
