<?xml version="1.0" encoding="UTF-8" standalone="no"?>
<svg
   height="128px"
   viewBox="0 0 128 128"
   width="128px"
   version="1.1"
   id="svg14"
   sodipodi:docname="sign.svg"
   xml:space="preserve"
   inkscape:version="1.3.2 (091e20ef0f, 2023-11-25)"
   xmlns:inkscape="http://www.inkscape.org/namespaces/inkscape"
   xmlns:sodipodi="http://sodipodi.sourceforge.net/DTD/sodipodi-0.dtd"
   xmlns="http://www.w3.org/2000/svg"
   xmlns:svg="http://www.w3.org/2000/svg"><defs
     id="defs14" /><sodipodi:namedview
     id="namedview14"
     pagecolor="#ffffff"
     bordercolor="#000000"
     borderopacity="0.25"
     inkscape:showpageshadow="2"
     inkscape:pageopacity="0.0"
     inkscape:pagecheckerboard="0"
     inkscape:deskcolor="#d1d1d1"
     inkscape:zoom="4.6015625"
     inkscape:cx="43.789474"
     inkscape:cy="64"
     inkscape:window-width="1536"
     inkscape:window-height="795"
     inkscape:window-x="0"
     inkscape:window-y="0"
     inkscape:window-maximized="1"
     inkscape:current-layer="svg14" /><linearGradient
     id="a"
     gradientUnits="userSpaceOnUse"
     x1="4"
     x2="124"
     y1="66.000977"
     y2="66.000977"><stop
       offset="0"
       stop-color="#e6a50a"
       id="stop1" /><stop
       offset="0.0333333"
       stop-color="#f5c211"
       id="stop2" /><stop
       offset="0.0666667"
       stop-color="#e6a50a"
       id="stop3" /><stop
       offset="0.933333"
       stop-color="#e6a50a"
       id="stop4" /><stop
       offset="0.966667"
       stop-color="#f5c211"
       id="stop5" /><stop
       offset="1"
       stop-color="#e6a50a"
       id="stop6" /></linearGradient><path
     d="m 64 12 c -0.941406 0 -1.875 0.167969 -2.761719 0.492188 c -1.777343 0.65625 -3.269531 1.921874 -4.203125 3.570312 l -51.960937 91.9375 h -1.074219 v 4 h 0.121094 c 0 4.371094 3.507812 7.933594 7.878906 8 h 104 c 4.40625 -0.015625 7.96875 -3.59375 7.96875 -8 h 0.03125 v -4 h -1.074219 l -51.960937 -91.9375 c -1.417969 -2.507812 -4.082032 -4.0625 -6.964844 -4.0625 z m 0 24.257812 l 38.289062 67.742188 h -76.578124 z m 0 0"
     fill="url(#a)"
     id="path6" /><path
     d="m 12 112 h 104 l -52 -92 z m 0 0"
     fill="#e5a50a"
     id="path7" /><path
     d="m 12 108 h 104 l -52 -92 z m 0 0"
     fill="#f5c211"
     stroke="#f5c211"
     stroke-linejoin="round"
     stroke-width="16"
     id="path8" /><g
     id="path9"
     style="fill:#000000;fill-opacity:1"><path
       style="color:#000000;fill:#000000;stroke-linejoin:round;-inkscape-stroke:none;fill-opacity:1"
       d="M 12,108 H 116 L 64,16 Z m 0,0"
       id="path14" /><path
       style="color:#000000;fill:#000000;stroke-linejoin:round;-inkscape-stroke:none;fill-opacity:1"
       d="m 64,12 a 4.0004,4.0004 0 0 0 -3.482422,2.03125 l -51.9999999,92 A 4.0004,4.0004 0 0 0 12,112 h 104 a 4.0004,4.0004 0 0 0 3.48242,-5.96875 l -51.999998,-92 A 4.0004,4.0004 0 0 0 64,12 Z M 64,24.130859 109.14453,104 H 18.855469 Z"
       id="path15" /></g><path
     d="m 12 108 h 104 l -52 -92 z m 0 0"
     fill="#f5c211"
     id="path10" /><path
     d="M 55.09705,63.41165"
     id="path19"
     style="stroke-width:5.84399" /><path
     d="m 55.09705,63.41165 c -1.552309,0.06849 -2.785022,1.346858 -2.785022,2.921993 0,1.620794 1.301199,2.921993 2.921993,2.921993 h 2.921993 v 17.531958 h -2.921993 c -1.620794,0 -2.921993,1.301204 -2.921993,2.921992 0,1.620798 1.301199,2.921998 2.921993,2.921998 h 17.531958 c 1.620795,0 2.921993,-1.3012 2.921993,-2.921998 0,-1.620788 -1.301198,-2.921992 -2.921993,-2.921992 H 69.843986 V 63.41165 H 55.234021 c -0.04558,0 -0.09134,0 -0.136983,0 z"
     id="path18"
     style="stroke-width:5.84399" /><path
     d="m 64,45.149194 c -3.629664,0 -6.574484,2.944825 -6.574484,6.574484 0,3.629665 2.94482,6.574484 6.574484,6.574484 3.629665,0 6.574485,-2.944819 6.574485,-6.574484 0,-3.629659 -2.94482,-6.574484 -6.574485,-6.574484 z"
     id="path17"
     style="stroke-width:5.84399" /></svg>
